<svg width="253" height="48" viewBox="0 0 253 48" fill="none" xmlns="http://www.w3.org/2000/svg">
<path d="M84.0176 0.896484V5.39844H88.5195V7.32227H84.0176V11.8242H82.1035V7.32227H77.6016V5.39844H82.1035V0.896484H84.0176Z" fill="#BB18D6"/>
<path d="M103.239 0.896484V5.39844H107.741V7.32227H103.239V11.8242H101.325V7.32227H96.8227V5.39844H101.325V0.896484H103.239Z" fill="#BB18D6"/>
<path d="M79.3125 19.1953C79.3125 18.5391 79.4375 17.9219 79.6875 17.3438C79.9375 16.75 80.2812 16.2422 80.7188 15.8203C81.1562 15.3828 81.6641 15.0391 82.2422 14.7891C82.8359 14.5234 83.4609 14.3906 84.1172 14.3906H102.352C103.008 14.3906 103.625 14.5234 104.203 14.7891C104.797 15.0391 105.312 15.3828 105.75 15.8203C106.188 16.2422 106.531 16.75 106.781 17.3438C107.031 17.9219 107.156 18.5391 107.156 19.1953V23.5312H102.352V19.1953H84.1172V43.1953H102.352V38.8828H107.156V43.1953C107.156 43.8516 107.031 44.4766 106.781 45.0703C106.531 45.6484 106.188 46.1562 105.75 46.5938C105.312 47.0312 104.797 47.375 104.203 47.625C103.625 47.875 103.008 48 102.352 48H84.1172C83.4609 48 82.8359 47.875 82.2422 47.625C81.6641 47.375 81.1562 47.0312 80.7188 46.5938C80.2812 46.1562 79.9375 45.6484 79.6875 45.0703C79.4375 44.4766 79.3125 43.8516 79.3125 43.1953V19.1953Z" fill="#BB18D6"/>
<path d="M41.6094 37.9219V34.0625H34.3125C33.8854 34.0625 33.4844 33.9844 33.1094 33.8281C32.7344 33.6615 32.4062 33.4427 32.125 33.1719C31.8542 32.8906 31.6354 32.5625 31.4688 32.1875C31.3125 31.8125 31.2344 31.4115 31.2344 30.9844V27.4375C31.2344 27.0104 31.3125 26.6094 31.4688 26.2344C31.6354 25.8594 31.8542 25.5365 32.125 25.2656C32.4062 24.9844 32.7344 24.7656 33.1094 24.6094C33.4844 24.4427 33.8854 24.3594 34.3125 24.3594H44.0469V27.4375H34.3125V30.9844H41.6094C42.0365 30.9844 42.4323 31.0677 42.7969 31.2344C43.1719 31.3906 43.5 31.6094 43.7812 31.8906C44.0625 32.1615 44.2812 32.4844 44.4375 32.8594C44.6042 33.2344 44.6875 33.6354 44.6875 34.0625V37.9219C44.6875 38.349 44.6042 38.75 44.4375 39.125C44.2812 39.5 44.0625 39.8281 43.7812 40.1094C43.5 40.3802 43.1719 40.599 42.7969 40.7656C42.4323 40.9219 42.0365 41 41.6094 41H31.2344V37.9219H41.6094Z" fill="black"/>
<path d="M71.7381 34.25H60.7225V37.9219H71.7381V41H60.7225C60.3058 41 59.91 40.9219 59.535 40.7656C59.16 40.599 58.8319 40.3802 58.5506 40.1094C58.2798 39.8281 58.061 39.5 57.8944 39.125C57.7381 38.75 57.66 38.349 57.66 37.9219V27.4375C57.66 27.0104 57.7381 26.6094 57.8944 26.2344C58.061 25.8594 58.2798 25.5365 58.5506 25.2656C58.8319 24.9844 59.16 24.7656 59.535 24.6094C59.91 24.4427 60.3058 24.3594 60.7225 24.3594H68.66C69.0871 24.3594 69.4881 24.4427 69.8631 24.6094C70.2381 24.7656 70.561 24.9844 70.8319 25.2656C71.1131 25.5365 71.3319 25.8594 71.4881 26.2344C71.6548 26.6094 71.7381 27.0104 71.7381 27.4375V34.25ZM60.7225 27.4375V31.1719H68.66V27.4375H60.7225Z" fill="black"/>
<path d="M127.953 37.9219C127.953 38.349 127.87 38.75 127.703 39.125C127.547 39.5 127.328 39.8281 127.047 40.1094C126.776 40.3802 126.453 40.599 126.078 40.7656C125.714 40.9219 125.318 41 124.891 41H116.625C116.208 41 115.812 40.9219 115.438 40.7656C115.062 40.599 114.734 40.3802 114.453 40.1094C114.182 39.8281 113.964 39.5 113.797 39.125C113.641 38.75 113.562 38.349 113.562 37.9219V27.4375C113.562 27.0104 113.641 26.6094 113.797 26.2344C113.964 25.8594 114.182 25.5365 114.453 25.2656C114.734 24.9844 115.062 24.7656 115.438 24.6094C115.812 24.4427 116.208 24.3594 116.625 24.3594H124.891C125.318 24.3594 125.714 24.4427 126.078 24.6094C126.453 24.7656 126.776 24.9844 127.047 25.2656C127.328 25.5365 127.547 25.8594 127.703 26.2344C127.87 26.6094 127.953 27.0104 127.953 27.4375V37.9219ZM116.625 27.4375V37.9219H124.891V27.4375H116.625Z" fill="black"/>
<path d="M154.441 27.4375V41H151.363V27.4375H144.316V41H141.254V24.3594H144.316V27.2969C144.337 26.8906 144.431 26.5104 144.597 26.1562C144.764 25.7917 144.983 25.4792 145.254 25.2188C145.535 24.9479 145.858 24.7396 146.222 24.5938C146.587 24.4375 146.978 24.3594 147.394 24.3594H151.363C151.769 24.3594 152.155 24.4375 152.519 24.5938C152.884 24.7396 153.207 24.9479 153.488 25.2188C153.769 25.4792 153.993 25.7917 154.16 26.1562C154.337 26.5104 154.431 26.8906 154.441 27.2969C154.462 26.8906 154.551 26.5104 154.707 26.1562C154.874 25.7917 155.092 25.4792 155.363 25.2188C155.644 24.9479 155.967 24.7396 156.332 24.5938C156.696 24.4375 157.087 24.3594 157.504 24.3594H161.472C161.9 24.3594 162.301 24.4427 162.676 24.6094C163.051 24.7656 163.374 24.9844 163.644 25.2656C163.926 25.5365 164.144 25.8594 164.301 26.2344C164.467 26.6094 164.551 27.0104 164.551 27.4375V41H161.472V27.4375H154.441Z" fill="black"/>
<path d="M192.57 37.9219C192.57 38.349 192.487 38.75 192.32 39.125C192.164 39.5 191.945 39.8281 191.664 40.1094C191.393 40.3802 191.07 40.599 190.695 40.7656C190.32 40.9219 189.919 41 189.492 41H180.914V47.7188H177.851V24.3594H180.914V27.1719C180.945 26.776 181.049 26.4115 181.226 26.0781C181.403 25.7344 181.627 25.4375 181.898 25.1875C182.169 24.9271 182.481 24.724 182.836 24.5781C183.2 24.4323 183.586 24.3594 183.992 24.3594H189.492C189.919 24.3594 190.32 24.4427 190.695 24.6094C191.07 24.7656 191.393 24.9844 191.664 25.2656C191.945 25.5365 192.164 25.8594 192.32 26.2344C192.487 26.6094 192.57 27.0104 192.57 27.4375V37.9219ZM189.492 37.9219V27.4375H180.914V37.9219H189.492Z" fill="black"/>
<path d="M209.089 24.3594V41H206.011V24.3594H209.089ZM205.855 17.9531H209.246V21.1562H205.855V17.9531Z" fill="black"/>
<path d="M225.609 17.9531V41H222.546V17.9531H225.609Z" fill="black"/>
<path d="M252.972 34.25H241.956V37.9219H252.972V41H241.956C241.54 41 241.144 40.9219 240.769 40.7656C240.394 40.599 240.066 40.3802 239.784 40.1094C239.514 39.8281 239.295 39.5 239.128 39.125C238.972 38.75 238.894 38.349 238.894 37.9219V27.4375C238.894 27.0104 238.972 26.6094 239.128 26.2344C239.295 25.8594 239.514 25.5365 239.784 25.2656C240.066 24.9844 240.394 24.7656 240.769 24.6094C241.144 24.4427 241.54 24.3594 241.956 24.3594H249.894C250.321 24.3594 250.722 24.4427 251.097 24.6094C251.472 24.7656 251.795 24.9844 252.066 25.2656C252.347 25.5365 252.566 25.8594 252.722 26.2344C252.889 26.6094 252.972 27.0104 252.972 27.4375V34.25ZM241.956 27.4375V31.1719H249.894V27.4375H241.956Z" fill="black"/>
<path d="M5.11719 14.3906V28.8984L21.1484 14.3906H27.9219L9.73438 30.8672L28.6484 48H21.875L5.11719 32.8828V48H0.3125V14.3906H5.11719Z" fill="#BB18D6"/>
</svg>
